<svg t="1647599265480" class="icon" viewBox="0 0 1024 1024" version="1.1" xmlns="http://www.w3.org/2000/svg" p-id="2217" width="200" height="200"><path d="M517.12 5.12q92.16 0 172.544 34.816t140.288 94.72 94.72 140.288 34.816 171.52q0 92.16-34.816 172.544t-94.72 140.288-140.288 94.72-172.544 34.816l-13.312 0q-6.144 0-12.288-1.024l-4.096 0q-15.36-2.048-26.112-13.824t-10.752-28.16q0-17.408 12.288-29.696t29.696-12.288q4.096 0 12.288 2.048l1.024-1.024 11.264 0q73.728 0 139.264-28.16t114.176-76.8 76.8-114.176 28.16-139.264-28.16-139.264-76.8-113.664-114.176-76.288-139.264-28.16-139.264 28.16-113.664 76.288-76.288 113.664-28.16 139.264q0 75.776 29.696 143.36 6.144 9.216 6.144 22.528 0 17.408-12.288 29.696t-29.696 12.288q-11.264 0-19.968-4.608t-14.848-12.8q-20.48-43.008-31.744-90.624t-11.264-99.84q0-91.136 34.816-171.52t94.72-140.288 140.288-94.72 171.52-34.816zM721.92 446.464q0 41.984-15.872 79.36t-43.52 65.024-65.024 44.032-80.384 16.384q-34.816 0-66.048-10.752t-56.832-31.232q-11.264 13.312-28.672 33.28t-36.864 44.544-39.936 51.712-37.888 53.76q-25.6 38.912-47.616 79.36t-38.4 74.24q-19.456 39.936-35.84 77.824l-105.472-4.096q15.36-44.032 37.888-92.16 19.456-40.96 47.616-91.136t67.072-100.352q21.504-27.648 45.056-55.296t46.08-52.224 41.984-44.544 32.768-33.28q-28.672-48.128-28.672-104.448 0-41.984 15.872-79.36t43.52-65.024 65.024-43.52 79.36-15.872q43.008 0 80.384 15.872t65.024 43.52 43.52 65.024 15.872 79.36z" p-id="2218"></path></svg>